{
  "accessors": [
    {
      "bufferView": 2,
      "componentType": 5126,
      "count": 5940,
      "max": [
        60.203941345214844,
        -949.9537353515625,
        239.1974639892578
      ],
      "min": [
        -2.4069340229034424,
        -952.9241943359375,
        30.116525650024414
      ],
      "type": "VEC3"
    },
    {
      "bufferView": 2,
      "byteOffset": 71280,
      "componentType": 5126,
      "count": 5940,
      "max": [
        0.9999983310699463,
        0.9994027614593506,
        0.9988141059875488
      ],
      "min": [
        -0.9999983310699463,
        -0.999402642250061,
        -0.9999979734420776
      ],
      "type": "VEC3"
    },
    {
      "bufferView": 0,
      "componentType": 5125,
      "count": 34056,
      "type": "SCALAR"
    },
    {
      "bufferView": 2,
      "byteOffset": 142560,
      "componentType": 5126,
      "count": 1989,
      "max": [
        59.50004959106445,
        -949.4869995117188,
        238.19712829589844
      ],
      "min": [
        -2.7754759788513184,
        -953.5534057617188,
        18.03298568725586
      ],
      "type": "VEC3"
    },
    {
      "bufferView": 2,
      "byteOffset": 166428,
      "componentType": 5126,
      "count": 1989,
      "max": [
        1.0,
        1.0,
        1.0
      ],
      "min": [
        -1.0,
        -1.0,
        -1.0
      ],
      "type": "VEC3"
    },
    {
      "bufferView": 1,
      "componentType": 5126,
      "count": 1989,
      "max": [
        378.9144592285156,
        512.3031005859375
      ],
      "min": [
        -233.569580078125,
        -1622.7713623046875
      ],
      "type": "VEC2"
    },
    {
      "bufferView": 0,
      "byteOffset": 136224,
      "componentType": 5125,
      "count": 8622,
      "type": "SCALAR"
    },
    {
      "bufferView": 2,
      "byteOffset": 190296,
      "componentType": 5126,
      "count": 1817,
      "max": [
        22.642972946166992,
        -928.399169921875,
        23.14359474182129
      ],
      "min": [
        -23.56964111328125,
        -974.6417236328125,
        0.1269959956407547
      ],
      "type": "VEC3"
    },
    {
      "bufferView": 2,
      "byteOffset": 212100,
      "componentType": 5126,
      "count": 1817,
      "max": [
        1.0,
        1.0,
        1.0
      ],
      "min": [
        -1.0,
        -1.0,
        -1.0
      ],
      "type": "VEC3"
    },
    {
      "bufferView": 1,
      "byteOffset": 15912,
      "componentType": 5126,
      "count": 1817,
      "max": [
        1.0192309617996216,
        1.0
      ],
      "min": [
        -233.569580078125,
        -1622.7713623046875
      ],
      "type": "VEC2"
    },
    {
      "bufferView": 0,
      "byteOffset": 170712,
      "componentType": 5125,
      "count": 3978,
      "type": "SCALAR"
    },
    {
      "bufferView": 2,
      "byteOffset": 233904,
      "componentType": 5126,
      "count": 50,
      "max": [
        58.937381744384766,
        -951.4476318359375,
        237.40805053710938
      ],
      "min": [
        -0.7209470272064209,
        -952.5863647460938,
        32.40843200683594
      ],
      "type": "VEC3"
    },
    {
      "bufferView": 2,
      "byteOffset": 234504,
      "componentType": 5126,
      "count": 50,
      "max": [
        -0.0,
        1.0,
        0.0
      ],
      "min": [
        -0.0,
        1.0,
        0.0
      ],
      "type": "VEC3"
    },
    {
      "bufferView": 1,
      "byteOffset": 30448,
      "componentType": 5126,
      "count": 50,
      "max": [
        0.9852949976921082,
        0.9951859712600708
      ],
      "min": [
        0.014705000445246696,
        0.014890000224113464
      ],
      "type": "VEC2"
    },
    {
      "bufferView": 0,
      "byteOffset": 186624,
      "componentType": 5125,
      "count": 96,
      "type": "SCALAR"
    }
  ],
  "asset": {
    "extras": {
      "author": "fifi.the.conqueror (https://sketchfab.com/fifi.the.conqueror)",
      "license": "CC-BY-4.0 (http://creativecommons.org/licenses/by/4.0/)",
      "source": "https://sketchfab.com/3d-models/teardrop-banner-380939248f4a465b9ac40759c0cddf60",
      "title": "Teardrop Banner"
    },
    "generator": "Sketchfab-14.85.0",
    "version": "2.0"
  },
  "bufferViews": [
    {
      "buffer": 0,
      "byteLength": 187008,
      "name": "floatBufferViews",
      "target": 34963
    },
    {
      "buffer": 0,
      "byteLength": 30848,
      "byteOffset": 187008,
      "byteStride": 8,
      "name": "floatBufferViews",
      "target": 34962
    },
    {
      "buffer": 0,
      "byteLength": 235104,
      "byteOffset": 217856,
      "byteStride": 12,
      "name": "floatBufferViews",
      "target": 34962
    }
  ],
  "buffers": [
    {
      "byteLength": 452960,
      "uri": "scene.bin"
    }
  ],
  "materials": [
    {
      "doubleSided": true,
      "name": "Small_Sunbird004SG",
      "pbrMetallicRoughness": {
        "metallicFactor": 0.0,
        "roughnessFactor": 0.6
      }
    },
    {
      "doubleSided": true,
      "name": "Small_Sunbird008SG",
      "pbrMetallicRoughness": {
        "metallicFactor": 0.0,
        "roughnessFactor": 0.6
      }
    },
    {
      "doubleSided": true,
      "name": "Small_Sunbird009SG",
      "pbrMetallicRoughness": {
        "metallicFactor": 0.0,
        "roughnessFactor": 0.6
      }
    },
    {
      "doubleSided": true,
      "name": "backSG",
      "pbrMetallicRoughness": {
        "metallicFactor": 0.0,
        "roughnessFactor": 0.6
      }
    }
  ],
  "meshes": [
    {
      "name": "Object_0",
      "primitives": [
        {
          "attributes": {
            "NORMAL": 1,
            "POSITION": 0
          },
          "indices": 2,
          "material": 1,
          "mode": 4
        }
      ]
    },
    {
      "name": "Object_1",
      "primitives": [
        {
          "attributes": {
            "NORMAL": 4,
            "POSITION": 3,
            "TEXCOORD_0": 5
          },
          "indices": 6,
          "material": 2,
          "mode": 4
        }
      ]
    },
    {
      "name": "Object_2",
      "primitives": [
        {
          "attributes": {
            "NORMAL": 8,
            "POSITION": 7,
            "TEXCOORD_0": 9
          },
          "indices": 10,
          "material": 0,
          "mode": 4
        }
      ]
    },
    {
      "name": "Object_3",
      "primitives": [
        {
          "attributes": {
            "NORMAL": 12,
            "POSITION": 11,
            "TEXCOORD_0": 13
          },
          "indices": 14,
          "material": 3,
          "mode": 4
        }
      ]
    }
  ],
  "nodes": [
    {
      "children": [
        1
      ],
      "matrix": [
        1.0,
        0.0,
        0.0,
        0.0,
        0.0,
        2.220446049250313e-16,
        -1.0,
        0.0,
        0.0,
        1.0,
        2.220446049250313e-16,
        0.0,
        0.0,
        0.0,
        0.0,
        1.0
      ],
      "name": "Sketchfab_model"
    },
    {
      "children": [
        2,
        3,
        4,
        5
      ],
      "name": "tear drop banner 2.obj.cleaner.materialmerger.gles"
    },
    {
      "mesh": 0,
      "name": "Object_2"
    },
    {
      "mesh": 1,
      "name": "Object_3"
    },
    {
      "mesh": 2,
      "name": "Object_4"
    },
    {
      "mesh": 3,
      "name": "Object_5"
    }
  ],
  "scene": 0,
  "scenes": [
    {
      "name": "Sketchfab_Scene",
      "nodes": [
        0
      ]
    }
  ]
}
